<mxfile host="app.diagrams.net" agent="Mozilla/5.0 (Windows NT 10.0; Win64; x64) AppleWebKit/537.36 (KHTML, like Gecko) Chrome/128.0.0.0 Safari/537.36 Edg/128.0.0.0" version="24.7.12">
  <diagram name="Page-1" id="e7e014a7-5840-1c2e-5031-d8a46d1fe8dd">
    <mxGraphModel dx="1350" dy="756" grid="1" gridSize="10" guides="1" tooltips="1" connect="1" arrows="1" fold="1" page="1" pageScale="1" pageWidth="1169" pageHeight="826" background="none" math="0" shadow="0">
      <root>
        <mxCell id="0" />
        <mxCell id="1" parent="0" />
        <mxCell id="4C-5zciVH0SpKlFS3FDx-41" value="Customer Care &amp; Billing" style="swimlane;whiteSpace=wrap" vertex="1" parent="1">
          <mxGeometry x="1000" y="128" width="160" height="570" as="geometry" />
        </mxCell>
        <mxCell id="4C-5zciVH0SpKlFS3FDx-42" value="Smart Meter Maintenance Job created" style="whiteSpace=wrap;" vertex="1" parent="4C-5zciVH0SpKlFS3FDx-41">
          <mxGeometry x="25" y="422" width="110" height="50" as="geometry" />
        </mxCell>
        <mxCell id="4C-5zciVH0SpKlFS3FDx-45" value="" style="ellipse;shape=endState;fillColor=#000000;strokeColor=#ff0000" vertex="1" parent="4C-5zciVH0SpKlFS3FDx-41">
          <mxGeometry x="65" y="500" width="30" height="30" as="geometry" />
        </mxCell>
        <mxCell id="4C-5zciVH0SpKlFS3FDx-46" value="" style="endArrow=open;strokeColor=#FF0000;endFill=1;rounded=0" edge="1" parent="4C-5zciVH0SpKlFS3FDx-41" source="4C-5zciVH0SpKlFS3FDx-42" target="4C-5zciVH0SpKlFS3FDx-45">
          <mxGeometry relative="1" as="geometry" />
        </mxCell>
        <mxCell id="4C-5zciVH0SpKlFS3FDx-78" value="" style="endArrow=classic;html=1;rounded=0;entryX=0.5;entryY=0;entryDx=0;entryDy=0;strokeColor=#ff0000;" edge="1" parent="4C-5zciVH0SpKlFS3FDx-41" target="4C-5zciVH0SpKlFS3FDx-54">
          <mxGeometry relative="1" as="geometry">
            <mxPoint x="-40" y="272" as="sourcePoint" />
            <mxPoint x="-560" y="232" as="targetPoint" />
            <Array as="points">
              <mxPoint x="-40" y="232" />
              <mxPoint x="-70" y="232" />
              <mxPoint x="-510" y="232" />
              <mxPoint x="-560" y="232" />
            </Array>
          </mxGeometry>
        </mxCell>
        <mxCell id="4C-5zciVH0SpKlFS3FDx-79" value="No" style="edgeLabel;resizable=0;html=1;;align=center;verticalAlign=middle;" connectable="0" vertex="1" parent="4C-5zciVH0SpKlFS3FDx-78">
          <mxGeometry relative="1" as="geometry">
            <mxPoint x="-30" as="offset" />
          </mxGeometry>
        </mxCell>
        <mxCell id="4C-5zciVH0SpKlFS3FDx-127" value="Smart Meter Maintenance Job completed" style="whiteSpace=wrap;" vertex="1" parent="4C-5zciVH0SpKlFS3FDx-41">
          <mxGeometry x="30" y="152" width="110" height="50" as="geometry" />
        </mxCell>
        <mxCell id="4C-5zciVH0SpKlFS3FDx-134" value="" style="ellipse;shape=endState;fillColor=#000000;strokeColor=#ff0000" vertex="1" parent="4C-5zciVH0SpKlFS3FDx-41">
          <mxGeometry x="65" y="92" width="30" height="30" as="geometry" />
        </mxCell>
        <mxCell id="4C-5zciVH0SpKlFS3FDx-135" value="" style="endArrow=classic;html=1;rounded=0;strokeColor=#ff0000;" edge="1" parent="4C-5zciVH0SpKlFS3FDx-41">
          <mxGeometry width="50" height="50" relative="1" as="geometry">
            <mxPoint x="80" y="122" as="sourcePoint" />
            <mxPoint x="80" y="152" as="targetPoint" />
          </mxGeometry>
        </mxCell>
        <mxCell id="3" value="Oracle Utilities Analytics" style="swimlane;" parent="1" vertex="1">
          <mxGeometry x="200" y="128" width="160" height="570" as="geometry" />
        </mxCell>
        <mxCell id="15" value="Receive Alert Files" style="" parent="3" vertex="1">
          <mxGeometry x="25" y="92" width="110" height="50" as="geometry" />
        </mxCell>
        <mxCell id="16" value="Produce output to DNA" style="whiteSpace=wrap;" parent="3" vertex="1">
          <mxGeometry x="25" y="182" width="110" height="50" as="geometry" />
        </mxCell>
        <mxCell id="17" value="" style="endArrow=open;strokeColor=#FF0000;endFill=1;rounded=0" parent="3" source="15" target="16" edge="1">
          <mxGeometry relative="1" as="geometry" />
        </mxCell>
        <mxCell id="2" value="Meter Data Management" style="swimlane;whiteSpace=wrap" parent="1" vertex="1">
          <mxGeometry x="40" y="128" width="160" height="570" as="geometry" />
        </mxCell>
        <mxCell id="4C-5zciVH0SpKlFS3FDx-51" value="" style="edgeStyle=orthogonalEdgeStyle;rounded=0;orthogonalLoop=1;jettySize=auto;html=1;exitX=0.5;exitY=1;exitDx=0;exitDy=0;entryX=0.5;entryY=0;entryDx=0;entryDy=0;fillColor=#f8cecc;strokeColor=#ff0000;gradientColor=#ea6b66;" edge="1" parent="2" source="4C-5zciVH0SpKlFS3FDx-49" target="7">
          <mxGeometry relative="1" as="geometry">
            <mxPoint x="130" y="82" as="targetPoint" />
            <Array as="points">
              <mxPoint x="80" y="72" />
              <mxPoint x="80" y="72" />
            </Array>
          </mxGeometry>
        </mxCell>
        <mxCell id="7" value="Alarm files pulled from HES via SFTP" style="whiteSpace=wrap;" parent="2" vertex="1">
          <mxGeometry x="25" y="92" width="110" height="50" as="geometry" />
        </mxCell>
        <mxCell id="4C-5zciVH0SpKlFS3FDx-49" value="" style="ellipse;shape=endState;fillColor=#000000;strokeColor=#ff0000" vertex="1" parent="2">
          <mxGeometry x="65" y="32" width="30" height="30" as="geometry" />
        </mxCell>
        <mxCell id="4C-5zciVH0SpKlFS3FDx-47" value="" style="endArrow=open;strokeColor=#FF0000;endFill=1;rounded=0;exitX=1;exitY=0.5;exitDx=0;exitDy=0;entryX=0;entryY=0.5;entryDx=0;entryDy=0;" edge="1" parent="1" source="7" target="15">
          <mxGeometry relative="1" as="geometry">
            <mxPoint x="450" y="255.5" as="sourcePoint" />
            <mxPoint x="407" y="353.5" as="targetPoint" />
          </mxGeometry>
        </mxCell>
        <mxCell id="4C-5zciVH0SpKlFS3FDx-44" value="" style="edgeStyle=none;strokeColor=#FF0000;endArrow=open;endFill=1;rounded=0;entryX=0;entryY=0.5;entryDx=0;entryDy=0;exitX=1;exitY=0.5;exitDx=0;exitDy=0;" edge="1" parent="1" target="4C-5zciVH0SpKlFS3FDx-42" source="33">
          <mxGeometry width="100" height="100" relative="1" as="geometry">
            <mxPoint x="970" y="557.5" as="sourcePoint" />
            <mxPoint x="1090" y="557.5" as="targetPoint" />
          </mxGeometry>
        </mxCell>
        <mxCell id="4" value="Distribution Networks Assist" style="swimlane;whiteSpace=wrap" parent="1" vertex="1">
          <mxGeometry x="360" y="128" width="640" height="570" as="geometry" />
        </mxCell>
        <mxCell id="33" value="Analysis of Alerts create Service Requests to CC&amp;B" style="whiteSpace=wrap;" parent="4" vertex="1">
          <mxGeometry x="510" y="422" width="110" height="50" as="geometry" />
        </mxCell>
        <mxCell id="4C-5zciVH0SpKlFS3FDx-54" value="" style="rhombus;whiteSpace=wrap;html=1;" vertex="1" parent="4">
          <mxGeometry x="60" y="252" width="40" height="38" as="geometry" />
        </mxCell>
        <mxCell id="4C-5zciVH0SpKlFS3FDx-55" value="" style="rhombus;whiteSpace=wrap;html=1;" vertex="1" parent="4">
          <mxGeometry x="160" y="252" width="40" height="38" as="geometry" />
        </mxCell>
        <mxCell id="4C-5zciVH0SpKlFS3FDx-92" value="" style="edgeStyle=orthogonalEdgeStyle;rounded=0;orthogonalLoop=1;jettySize=auto;html=1;" edge="1" parent="4" source="4C-5zciVH0SpKlFS3FDx-56" target="4C-5zciVH0SpKlFS3FDx-57">
          <mxGeometry relative="1" as="geometry" />
        </mxCell>
        <mxCell id="4C-5zciVH0SpKlFS3FDx-56" value="" style="rhombus;whiteSpace=wrap;html=1;" vertex="1" parent="4">
          <mxGeometry x="260" y="252" width="40" height="40" as="geometry" />
        </mxCell>
        <mxCell id="4C-5zciVH0SpKlFS3FDx-57" value="" style="rhombus;whiteSpace=wrap;html=1;" vertex="1" parent="4">
          <mxGeometry x="360" y="252" width="40" height="40" as="geometry" />
        </mxCell>
        <mxCell id="4C-5zciVH0SpKlFS3FDx-58" value="" style="rhombus;whiteSpace=wrap;html=1;" vertex="1" parent="4">
          <mxGeometry x="460" y="252" width="40" height="40" as="geometry" />
        </mxCell>
        <mxCell id="4C-5zciVH0SpKlFS3FDx-59" value="" style="rhombus;whiteSpace=wrap;html=1;" vertex="1" parent="4">
          <mxGeometry x="560" y="252" width="40" height="40" as="geometry" />
        </mxCell>
        <mxCell id="4C-5zciVH0SpKlFS3FDx-69" value="" style="endArrow=classic;html=1;rounded=0;entryX=0;entryY=0.5;entryDx=0;entryDy=0;strokeColor=#ff0000;" edge="1" parent="4">
          <mxGeometry relative="1" as="geometry">
            <mxPoint x="300" y="271.5" as="sourcePoint" />
            <mxPoint x="360" y="271.5" as="targetPoint" />
          </mxGeometry>
        </mxCell>
        <mxCell id="4C-5zciVH0SpKlFS3FDx-70" value="No" style="edgeLabel;resizable=0;html=1;;align=center;verticalAlign=middle;" connectable="0" vertex="1" parent="4C-5zciVH0SpKlFS3FDx-69">
          <mxGeometry relative="1" as="geometry" />
        </mxCell>
        <mxCell id="4C-5zciVH0SpKlFS3FDx-71" value="" style="endArrow=classic;html=1;rounded=0;entryX=0;entryY=0.5;entryDx=0;entryDy=0;strokeColor=#ff0000;" edge="1" parent="4">
          <mxGeometry relative="1" as="geometry">
            <mxPoint x="400" y="271.5" as="sourcePoint" />
            <mxPoint x="460" y="271.5" as="targetPoint" />
            <Array as="points">
              <mxPoint x="460" y="272" />
            </Array>
          </mxGeometry>
        </mxCell>
        <mxCell id="4C-5zciVH0SpKlFS3FDx-72" value="No" style="edgeLabel;resizable=0;html=1;;align=center;verticalAlign=middle;" connectable="0" vertex="1" parent="4C-5zciVH0SpKlFS3FDx-71">
          <mxGeometry relative="1" as="geometry" />
        </mxCell>
        <mxCell id="4C-5zciVH0SpKlFS3FDx-74" value="" style="endArrow=classic;html=1;rounded=0;entryX=0;entryY=0.5;entryDx=0;entryDy=0;strokeColor=#ff0000;" edge="1" parent="4">
          <mxGeometry relative="1" as="geometry">
            <mxPoint x="100" y="271.5" as="sourcePoint" />
            <mxPoint x="160" y="271.5" as="targetPoint" />
          </mxGeometry>
        </mxCell>
        <mxCell id="4C-5zciVH0SpKlFS3FDx-75" value="No" style="edgeLabel;resizable=0;html=1;;align=center;verticalAlign=middle;" connectable="0" vertex="1" parent="4C-5zciVH0SpKlFS3FDx-74">
          <mxGeometry relative="1" as="geometry" />
        </mxCell>
        <mxCell id="4C-5zciVH0SpKlFS3FDx-76" value="" style="endArrow=classic;html=1;rounded=0;entryX=0;entryY=0.5;entryDx=0;entryDy=0;strokeColor=#ff0000;" edge="1" parent="4">
          <mxGeometry relative="1" as="geometry">
            <mxPoint x="500" y="271.5" as="sourcePoint" />
            <mxPoint x="560" y="271.5" as="targetPoint" />
            <Array as="points">
              <mxPoint x="560" y="272" />
            </Array>
          </mxGeometry>
        </mxCell>
        <mxCell id="4C-5zciVH0SpKlFS3FDx-77" value="No" style="edgeLabel;resizable=0;html=1;;align=center;verticalAlign=middle;" connectable="0" vertex="1" parent="4C-5zciVH0SpKlFS3FDx-76">
          <mxGeometry relative="1" as="geometry" />
        </mxCell>
        <mxCell id="4C-5zciVH0SpKlFS3FDx-81" value="" style="endArrow=classic;html=1;rounded=0;entryX=0;entryY=0.6;entryDx=0;entryDy=0;entryPerimeter=0;strokeColor=#ff0000;" edge="1" parent="4" target="33">
          <mxGeometry relative="1" as="geometry">
            <mxPoint x="80" y="290" as="sourcePoint" />
            <mxPoint x="450" y="452" as="targetPoint" />
            <Array as="points">
              <mxPoint x="80" y="452" />
            </Array>
          </mxGeometry>
        </mxCell>
        <mxCell id="4C-5zciVH0SpKlFS3FDx-82" value="Yes" style="edgeLabel;resizable=0;html=1;;align=center;verticalAlign=middle;" connectable="0" vertex="1" parent="4C-5zciVH0SpKlFS3FDx-81">
          <mxGeometry relative="1" as="geometry">
            <mxPoint x="-134" y="-60" as="offset" />
          </mxGeometry>
        </mxCell>
        <mxCell id="4C-5zciVH0SpKlFS3FDx-83" value="Leakage" style="edgeLabel;resizable=0;html=1;;align=left;verticalAlign=bottom;" connectable="0" vertex="1" parent="4C-5zciVH0SpKlFS3FDx-81">
          <mxGeometry relative="1" as="geometry">
            <mxPoint x="-154" y="-130" as="offset" />
          </mxGeometry>
        </mxCell>
        <mxCell id="4C-5zciVH0SpKlFS3FDx-89" value="" style="endArrow=classic;html=1;rounded=0;strokeColor=#ff0000;" edge="1" parent="4">
          <mxGeometry relative="1" as="geometry">
            <mxPoint x="180" y="292" as="sourcePoint" />
            <mxPoint x="180" y="452" as="targetPoint" />
            <Array as="points">
              <mxPoint x="180" y="414" />
              <mxPoint x="180" y="392" />
              <mxPoint x="180" y="372" />
            </Array>
          </mxGeometry>
        </mxCell>
        <mxCell id="4C-5zciVH0SpKlFS3FDx-90" value="Yes" style="edgeLabel;resizable=0;html=1;;align=center;verticalAlign=middle;" connectable="0" vertex="1" parent="4C-5zciVH0SpKlFS3FDx-89">
          <mxGeometry relative="1" as="geometry">
            <mxPoint y="-22" as="offset" />
          </mxGeometry>
        </mxCell>
        <mxCell id="4C-5zciVH0SpKlFS3FDx-91" value="High Consumption" style="edgeLabel;resizable=0;html=1;;align=left;verticalAlign=bottom;" connectable="0" vertex="1" parent="4C-5zciVH0SpKlFS3FDx-89">
          <mxGeometry relative="1" as="geometry">
            <mxPoint x="-50" y="-52" as="offset" />
          </mxGeometry>
        </mxCell>
        <mxCell id="4C-5zciVH0SpKlFS3FDx-94" value="" style="endArrow=classic;html=1;rounded=0;entryX=0;entryY=0.5;entryDx=0;entryDy=0;strokeColor=#ff0000;" edge="1" parent="4">
          <mxGeometry relative="1" as="geometry">
            <mxPoint x="200" y="271.5" as="sourcePoint" />
            <mxPoint x="260" y="271.5" as="targetPoint" />
            <Array as="points">
              <mxPoint x="260" y="272" />
            </Array>
          </mxGeometry>
        </mxCell>
        <mxCell id="4C-5zciVH0SpKlFS3FDx-95" value="No" style="edgeLabel;resizable=0;html=1;;align=center;verticalAlign=middle;" connectable="0" vertex="1" parent="4C-5zciVH0SpKlFS3FDx-94">
          <mxGeometry relative="1" as="geometry" />
        </mxCell>
        <mxCell id="4C-5zciVH0SpKlFS3FDx-99" value="" style="endArrow=classic;html=1;rounded=0;strokeColor=#ff0000;" edge="1" parent="4">
          <mxGeometry relative="1" as="geometry">
            <mxPoint x="379.5" y="290" as="sourcePoint" />
            <mxPoint x="380" y="452" as="targetPoint" />
            <Array as="points" />
          </mxGeometry>
        </mxCell>
        <mxCell id="4C-5zciVH0SpKlFS3FDx-100" value="Yes" style="edgeLabel;resizable=0;html=1;;align=center;verticalAlign=middle;" connectable="0" vertex="1" parent="4C-5zciVH0SpKlFS3FDx-99">
          <mxGeometry relative="1" as="geometry">
            <mxPoint y="21" as="offset" />
          </mxGeometry>
        </mxCell>
        <mxCell id="4C-5zciVH0SpKlFS3FDx-101" value="Low Battery" style="edgeLabel;resizable=0;html=1;;align=left;verticalAlign=bottom;" connectable="0" vertex="1" parent="4C-5zciVH0SpKlFS3FDx-99">
          <mxGeometry relative="1" as="geometry">
            <mxPoint x="-30" y="-9" as="offset" />
          </mxGeometry>
        </mxCell>
        <mxCell id="4C-5zciVH0SpKlFS3FDx-108" value="" style="endArrow=classic;html=1;rounded=0;strokeColor=#ff0000;" edge="1" parent="4">
          <mxGeometry relative="1" as="geometry">
            <mxPoint x="279.5" y="292" as="sourcePoint" />
            <mxPoint x="280" y="454" as="targetPoint" />
            <Array as="points" />
          </mxGeometry>
        </mxCell>
        <mxCell id="4C-5zciVH0SpKlFS3FDx-109" value="Yes" style="edgeLabel;resizable=0;html=1;;align=center;verticalAlign=middle;" connectable="0" vertex="1" parent="4C-5zciVH0SpKlFS3FDx-108">
          <mxGeometry relative="1" as="geometry">
            <mxPoint y="19" as="offset" />
          </mxGeometry>
        </mxCell>
        <mxCell id="4C-5zciVH0SpKlFS3FDx-110" value="No Consumption" style="edgeLabel;resizable=0;html=1;;align=left;verticalAlign=bottom;" connectable="0" vertex="1" parent="4C-5zciVH0SpKlFS3FDx-108">
          <mxGeometry relative="1" as="geometry">
            <mxPoint x="-40" y="-51" as="offset" />
          </mxGeometry>
        </mxCell>
        <mxCell id="4C-5zciVH0SpKlFS3FDx-111" value="" style="endArrow=classic;html=1;rounded=0;strokeColor=#ff0000;" edge="1" parent="4">
          <mxGeometry relative="1" as="geometry">
            <mxPoint x="479.5" y="292" as="sourcePoint" />
            <mxPoint x="480" y="454" as="targetPoint" />
            <Array as="points" />
          </mxGeometry>
        </mxCell>
        <mxCell id="4C-5zciVH0SpKlFS3FDx-112" value="Yes" style="edgeLabel;resizable=0;html=1;;align=center;verticalAlign=middle;" connectable="0" vertex="1" parent="4C-5zciVH0SpKlFS3FDx-111">
          <mxGeometry relative="1" as="geometry">
            <mxPoint y="19" as="offset" />
          </mxGeometry>
        </mxCell>
        <mxCell id="4C-5zciVH0SpKlFS3FDx-113" value="Meter Tamper" style="edgeLabel;resizable=0;html=1;;align=left;verticalAlign=bottom;" connectable="0" vertex="1" parent="4C-5zciVH0SpKlFS3FDx-111">
          <mxGeometry relative="1" as="geometry">
            <mxPoint x="-30" y="-51" as="offset" />
          </mxGeometry>
        </mxCell>
        <mxCell id="4C-5zciVH0SpKlFS3FDx-114" value="" style="endArrow=classic;html=1;rounded=0;strokeColor=#ff0000;" edge="1" parent="4">
          <mxGeometry relative="1" as="geometry">
            <mxPoint x="580" y="292" as="sourcePoint" />
            <mxPoint x="579" y="422" as="targetPoint" />
          </mxGeometry>
        </mxCell>
        <mxCell id="4C-5zciVH0SpKlFS3FDx-115" value="Yes" style="edgeLabel;resizable=0;html=1;;align=center;verticalAlign=middle;" connectable="0" vertex="1" parent="4C-5zciVH0SpKlFS3FDx-114">
          <mxGeometry relative="1" as="geometry">
            <mxPoint y="35" as="offset" />
          </mxGeometry>
        </mxCell>
        <mxCell id="4C-5zciVH0SpKlFS3FDx-116" value="Back Flow" style="edgeLabel;resizable=0;html=1;;align=left;verticalAlign=bottom;" connectable="0" vertex="1" parent="4C-5zciVH0SpKlFS3FDx-114">
          <mxGeometry x="-1" relative="1" as="geometry">
            <mxPoint x="-30" y="70" as="offset" />
          </mxGeometry>
        </mxCell>
        <mxCell id="4C-5zciVH0SpKlFS3FDx-117" value="Data Collection" style="whiteSpace=wrap;" vertex="1" parent="4">
          <mxGeometry x="80" y="62" width="110" height="50" as="geometry" />
        </mxCell>
        <mxCell id="4C-5zciVH0SpKlFS3FDx-118" value="Data Processing" style="whiteSpace=wrap;" vertex="1" parent="4">
          <mxGeometry x="265" y="62" width="110" height="50" as="geometry" />
        </mxCell>
        <mxCell id="4C-5zciVH0SpKlFS3FDx-119" value="Alert Management" style="whiteSpace=wrap;" vertex="1" parent="4">
          <mxGeometry x="265" y="152" width="110" height="50" as="geometry" />
        </mxCell>
        <mxCell id="4C-5zciVH0SpKlFS3FDx-123" value="" style="endArrow=open;strokeColor=#FF0000;endFill=1;rounded=0;exitX=1;exitY=0.5;exitDx=0;exitDy=0;entryX=0;entryY=0.5;entryDx=0;entryDy=0;" edge="1" parent="4" source="4C-5zciVH0SpKlFS3FDx-117">
          <mxGeometry relative="1" as="geometry">
            <mxPoint x="215" y="86.5" as="sourcePoint" />
            <mxPoint x="265" y="86.5" as="targetPoint" />
          </mxGeometry>
        </mxCell>
        <mxCell id="4C-5zciVH0SpKlFS3FDx-124" value="" style="endArrow=open;strokeColor=#FF0000;endFill=1;rounded=0;exitX=0.5;exitY=1;exitDx=0;exitDy=0;entryX=0.5;entryY=0;entryDx=0;entryDy=0;" edge="1" parent="4" source="4C-5zciVH0SpKlFS3FDx-118" target="4C-5zciVH0SpKlFS3FDx-119">
          <mxGeometry relative="1" as="geometry">
            <mxPoint x="200" y="97" as="sourcePoint" />
            <mxPoint x="275" y="96.5" as="targetPoint" />
          </mxGeometry>
        </mxCell>
        <mxCell id="4C-5zciVH0SpKlFS3FDx-125" value="" style="endArrow=classic;html=1;rounded=0;entryX=0;entryY=0.5;entryDx=0;entryDy=0;exitX=0;exitY=0.5;exitDx=0;exitDy=0;strokeColor=#ff0000;" edge="1" parent="4" source="4C-5zciVH0SpKlFS3FDx-119" target="4C-5zciVH0SpKlFS3FDx-54">
          <mxGeometry width="50" height="50" relative="1" as="geometry">
            <mxPoint x="260" y="182" as="sourcePoint" />
            <mxPoint x="20" y="262" as="targetPoint" />
            <Array as="points">
              <mxPoint x="40" y="177" />
              <mxPoint x="40" y="271" />
            </Array>
          </mxGeometry>
        </mxCell>
        <mxCell id="19" value="" style="endArrow=open;strokeColor=#FF0000;endFill=1;rounded=0;exitX=1;exitY=0.5;exitDx=0;exitDy=0;entryX=0;entryY=0.5;entryDx=0;entryDy=0;" parent="1" source="16" target="4C-5zciVH0SpKlFS3FDx-117" edge="1">
          <mxGeometry relative="1" as="geometry">
            <mxPoint x="420" y="240" as="targetPoint" />
            <Array as="points">
              <mxPoint x="380" y="335" />
              <mxPoint x="380" y="215" />
            </Array>
          </mxGeometry>
        </mxCell>
        <mxCell id="4C-5zciVH0SpKlFS3FDx-136" value="" style="endArrow=classic;html=1;rounded=0;exitX=0;exitY=0.5;exitDx=0;exitDy=0;entryX=1;entryY=0.5;entryDx=0;entryDy=0;strokeColor=#ff0000;" edge="1" parent="1" source="4C-5zciVH0SpKlFS3FDx-127" target="4C-5zciVH0SpKlFS3FDx-119">
          <mxGeometry width="50" height="50" relative="1" as="geometry">
            <mxPoint x="580" y="410" as="sourcePoint" />
            <mxPoint x="630" y="360" as="targetPoint" />
          </mxGeometry>
        </mxCell>
      </root>
    </mxGraphModel>
  </diagram>
</mxfile>
